<svg width="24" height="24" viewBox="0 0 24 24" fill="none" xmlns="http://www.w3.org/2000/svg">
<mask id="path-1-inside-1_4287_39774" fill="white">
<path fill-rule="evenodd" clip-rule="evenodd" d="M20.0289 20.9185C22.4671 18.7221 24 15.54 24 12C24 5.37258 18.6274 0 12 0C5.37258 0 0 5.37258 0 12C0 18.6274 5.37258 24 12 24C15.0863 24 17.9005 22.8349 20.0266 20.9205L0.262174 14.4986L15.7082 0.591017L20.0289 20.9185Z"/>
</mask>
<path d="M20.0289 20.9185L17.7791 21.3967L18.6076 25.2944L21.5683 22.6274L20.0289 20.9185ZM20.0266 20.9205L21.5656 22.6298L24.5262 19.9641L20.7374 18.7331L20.0266 20.9205ZM0.262174 14.4986L-1.27683 12.7894L-4.2373 15.455L-0.448565 16.6861L0.262174 14.4986ZM15.7082 0.591017L17.9579 0.11282L17.1296 -3.78384L14.1692 -1.11822L15.7082 0.591017ZM21.7 12C21.7 14.8614 20.464 17.4309 18.4895 19.2096L21.5683 22.6274C24.4702 20.0132 26.3 16.2187 26.3 12H21.7ZM12 2.3C17.3572 2.3 21.7 6.64284 21.7 12H26.3C26.3 4.10233 19.8977 -2.3 12 -2.3V2.3ZM2.3 12C2.3 6.64284 6.64284 2.3 12 2.3V-2.3C4.10233 -2.3 -2.3 4.10233 -2.3 12H2.3ZM12 21.7C6.64284 21.7 2.3 17.3572 2.3 12H-2.3C-2.3 19.8977 4.10233 26.3 12 26.3V21.7ZM18.4877 19.2113C16.7674 20.7601 14.4962 21.7 12 21.7V26.3C15.6764 26.3 19.0335 24.9096 21.5656 22.6298L18.4877 19.2113ZM20.7374 18.7331L0.972913 12.3112L-0.448565 16.6861L19.3159 23.1079L20.7374 18.7331ZM1.80117 16.2079L17.2472 2.30025L14.1692 -1.11822L-1.27683 12.7894L1.80117 16.2079ZM13.4584 1.06921L17.7791 21.3967L22.2786 20.4403L17.9579 0.11282L13.4584 1.06921Z" fill="#212529" mask="url(#path-1-inside-1_4287_39774)"/>
</svg>
